<svg height="22" width="22" xmlns="http://www.w3.org/2000/svg"><g fill="#333"><path d="M13.452 16.01c-.576-.571-1.297-.571-1.872 0a85.6 85.6 0 0 0-1.307 1.31c-.118.123-.217.147-.363.067-.283-.156-.585-.279-.858-.448-1.269-.797-2.334-1.825-3.278-2.986-.466-.575-.886-1.188-1.174-1.881-.056-.142-.052-.232.066-.345.439-.424.868-.858 1.297-1.292.599-.604.599-1.311-.005-1.92-.34-.344-.683-.688-1.028-1.028-.353-.353-.702-.707-1.06-1.06-.58-.567-1.298-.571-1.878 0-.438.433-.867.881-1.31 1.306a2.138 2.138 0 0 0-.67 1.443c-.066.915.155 1.783.471 2.627.651 1.745 1.637 3.292 2.83 4.716a17.474 17.474 0 0 0 5.805 4.542c1.014.495 2.07.872 3.216.933.788.043 1.476-.155 2.023-.768.377-.42.797-.802 1.198-1.203.59-.594.594-1.316.01-1.905-.708-.708-1.41-1.406-2.113-2.108z"/><path d="M19.95 2.05a6.999 6.999 0 0 0-9.9 0 6.996 6.996 0 0 0-.295 9.583l.07.06c-.264.573-.721 1.275-1.442 1.63-.24.116-.184.472.079.513.79.125 1.921-.014 2.975-.812a6.994 6.994 0 0 0 8.508-1.077 6.991 6.991 0 0 0 .005-9.896zm-4.652.629a1.138 1.138 0 0 1 1.127 1.154c-.004.633-.517 1.145-1.131 1.14a1.154 1.154 0 0 1-1.146-1.158 1.141 1.141 0 0 1 1.15-1.136zm1.622 7.689a.65.65 0 0 1-.158.273c-.415.42-.91.67-1.505.678a4.994 4.994 0 0 1-.832-.046c-.457-.064-1.034-.628-.951-1.233.055-.41.12-.822.189-1.233.12-.711.25-1.427.374-2.138.01-.046.01-.093.01-.139 0-.3-.093-.402-.389-.443-.124-.019-.258-.028-.374-.07-.148-.05-.212-.166-.198-.286.013-.124.092-.203.254-.235.083-.019.17-.019.258-.019h2.162c.268 0 .425.125.434.393a3.26 3.26 0 0 1-.074.665c-.143.813-.295 1.625-.443 2.443-.05.268-.106.54-.134.808-.014.13.005.268.037.393.042.17.17.263.342.244.143-.018.286-.069.425-.12.11-.041.208-.12.323-.161.153-.06.291.055.25.226z"/></g></svg>