<svg height="25" width="25" xmlns="http://www.w3.org/2000/svg"><path d="M14.457 14.46c-2.754 2.753-7.238 2.753-9.992 0a7.08 7.08 0 0 1 0-9.997c2.754-2.753 7.238-2.753 9.992 0a7.08 7.08 0 0 1 0 9.997m1.699-11.692c-3.691-3.69-9.699-3.69-13.39 0-3.688 3.692-3.688 9.695 0 13.387 3.289 3.285 8.406 3.637 12.093 1.07.078.367.258.72.543 1.005l5.371 5.375c.786.78 2.051.78 2.829 0a1.994 1.994 0 0 0 0-2.829l-5.372-5.375a1.995 1.995 0 0 0-1.003-.539c2.566-3.692 2.214-8.809-1.071-12.094" fill="#333" fill-rule="evenodd"/></svg>